<svg xmlns="http://www.w3.org/2000/svg" viewBox="0 0 1600 900" preserveAspectRatio="xMidYMid slice">
  <defs>
    <linearGradient id="sky" x1="0" y1="0" x2="0" y2="1">
      <stop offset="0%" stop-color="#ffffff"/>
      <stop offset="55%" stop-color="#f1f5f9"/>
      <stop offset="100%" stop-color="#e2e8f0"/>
    </linearGradient>
    <linearGradient id="mist" x1="0" y1="0" x2="1" y2="0">
      <stop offset="0%" stop-color="#cbd5e1" stop-opacity="0"/>
      <stop offset="50%" stop-color="#94a3b8" stop-opacity="0.25"/>
      <stop offset="100%" stop-color="#cbd5e1" stop-opacity="0"/>
    </linearGradient>
  </defs>
  <rect width="1600" height="900" fill="url(#sky)"/>
  <rect width="1600" height="900" fill="url(#mist)"/>
  <path fill="#94a3b8" opacity="0.28" d="M0 560 L220 360 L460 520 L720 280 L980 500 L1240 320 L1600 540 L1600 900 L0 900 Z"/>
  <path fill="#64748b" opacity="0.32" d="M0 620 L320 420 L580 600 L880 340 L1180 560 L1480 400 L1600 480 L1600 900 L0 900 Z"/>
  <path fill="#475569" opacity="0.22" d="M0 680 L400 500 L760 660 L1120 420 L1600 600 L1600 900 L0 900 Z"/>
</svg>
